<svg width="789" height="641" viewBox="0 0 789 641" fill="none" xmlns="http://www.w3.org/2000/svg">
<line x1="31.6958" y1="584.086" x2="31.6958" y2="403.294" stroke="#2A4779" stroke-width="27"/>
<line x1="740.937" y1="609.118" x2="740.937" y2="428.326" stroke="#2A4779" stroke-width="27"/>
<line x1="29.2123" y1="598.359" x2="225.992" y2="393.931" stroke="#2A4779" stroke-width="27"/>
<line x1="45.2223" y1="395.356" x2="754.462" y2="396.747" stroke="#2A4779" stroke-width="27"/>
<line x1="556.343" y1="394.021" x2="759.381" y2="608.879" stroke="#2A4779" stroke-width="27"/>
<line x1="663.349" y1="318.056" x2="133.503" y2="318.056" stroke="#2A4779" stroke-width="27"/>
<line x1="646.662" y1="177.599" x2="116.816" y2="177.599" stroke="#2A4779" stroke-width="27"/>
<line x1="646.662" y1="44.095" x2="116.816" y2="44.0949" stroke="#2A4779" stroke-width="27"/>
<line x1="647.5" y1="40.4023" x2="647.5" y2="326.887" stroke="#2A4779" stroke-width="27"/>
<line x1="134.488" y1="36.1575" x2="134.488" y2="322.642" stroke="#2A4779" stroke-width="27"/>
<line x1="130.786" y1="306.194" x2="29.9631" y2="412.58" stroke="#2A4779" stroke-width="27"/>
<line x1="661.326" y1="298.545" x2="560.503" y2="404.931" stroke="#2A4779" stroke-width="27"/>
<line x1="747.547" y1="402.845" x2="646.723" y2="509.231" stroke="#2A4779" stroke-width="27"/>
<line x1="745.138" y1="403.079" x2="640.668" y2="300.272" stroke="#2A4779" stroke-width="27"/>
<line x1="234.067" y1="412.813" x2="129.596" y2="310.007" stroke="#2A4779" stroke-width="27"/>
<line x1="140.198" y1="515.027" x2="35.7268" y2="412.22" stroke="#2A4779" stroke-width="27"/>
<circle cx="38.9387" cy="601.464" r="38.9387" fill="#2A4779"/>
<circle cx="133.504" cy="495.078" r="38.9387" fill="#2A4779"/>
<circle cx="38.9387" cy="403.294" r="38.9387" fill="#2A4779"/>
<circle cx="230.156" cy="403.294" r="38.9387" fill="#2A4779"/>
<circle cx="133.504" cy="311.51" r="38.9387" fill="#2A4779"/>
<circle cx="133.504" cy="172.443" r="38.9387" fill="#2A4779"/>
<circle cx="133.504" cy="38.9389" r="38.9387" fill="#2A4779"/>
<circle cx="390.082" cy="38.9389" r="38.9387" fill="#2A4779"/>
<circle cx="646.66" cy="38.9389" r="38.9387" fill="#2A4779"/>
<circle cx="646.66" cy="173.833" r="38.9387" fill="#2A4779"/>
<circle cx="390.082" cy="173.833" r="38.9387" fill="#2A4779"/>
<circle cx="651.528" cy="311.51" r="38.9387" fill="#2A4779"/>
<circle cx="553.486" cy="403.294" r="38.9387" fill="#2A4779"/>
<circle cx="749.57" cy="403.294" r="38.9387" fill="#2A4779"/>
<circle cx="646.66" cy="495.078" r="38.9387" fill="#2A4779"/>
<circle cx="749.57" cy="601.464" r="38.9387" fill="#2A4779"/>
</svg>
