<svg width="789" height="641" viewBox="0 0 789 641" fill="none" xmlns="http://www.w3.org/2000/svg">
<line x1="31.6963" y1="584.684" x2="31.6963" y2="403.892" stroke="white" stroke-width="27"/>
<line x1="740.937" y1="609.715" x2="740.937" y2="428.923" stroke="white" stroke-width="27"/>
<line x1="29.2123" y1="598.957" x2="225.992" y2="394.529" stroke="white" stroke-width="27"/>
<line x1="45.2228" y1="395.954" x2="754.463" y2="397.345" stroke="white" stroke-width="27"/>
<line x1="556.344" y1="394.619" x2="759.382" y2="609.477" stroke="white" stroke-width="27"/>
<line x1="663.349" y1="318.654" x2="133.503" y2="318.654" stroke="white" stroke-width="27"/>
<line x1="646.662" y1="178.197" x2="116.816" y2="178.197" stroke="white" stroke-width="27"/>
<line x1="646.662" y1="44.6924" x2="116.816" y2="44.6924" stroke="white" stroke-width="27"/>
<line x1="647.5" y1="41" x2="647.5" y2="327.485" stroke="white" stroke-width="27"/>
<line x1="134.488" y1="36.7554" x2="134.488" y2="323.24" stroke="white" stroke-width="27"/>
<line x1="130.787" y1="306.792" x2="29.9636" y2="413.178" stroke="white" stroke-width="27"/>
<line x1="661.326" y1="299.143" x2="560.503" y2="405.529" stroke="white" stroke-width="27"/>
<line x1="747.547" y1="403.443" x2="646.723" y2="509.829" stroke="white" stroke-width="27"/>
<line x1="745.138" y1="403.676" x2="640.668" y2="300.87" stroke="white" stroke-width="27"/>
<line x1="234.068" y1="413.411" x2="129.597" y2="310.604" stroke="white" stroke-width="27"/>
<line x1="140.198" y1="515.625" x2="35.7272" y2="412.818" stroke="white" stroke-width="27"/>
<circle cx="38.9387" cy="602.061" r="38.9387" fill="white"/>
<circle cx="133.504" cy="495.675" r="38.9387" fill="white"/>
<circle cx="38.9387" cy="403.891" r="38.9387" fill="white"/>
<circle cx="230.155" cy="403.891" r="38.9387" fill="white"/>
<circle cx="133.504" cy="312.107" r="38.9387" fill="white"/>
<circle cx="133.504" cy="173.041" r="38.9387" fill="white"/>
<circle cx="133.504" cy="39.5363" r="38.9387" fill="white"/>
<circle cx="390.082" cy="39.5363" r="38.9387" fill="white"/>
<circle cx="646.66" cy="39.5363" r="38.9387" fill="white"/>
<circle cx="646.66" cy="174.431" r="38.9387" fill="white"/>
<circle cx="390.082" cy="174.431" r="38.9387" fill="white"/>
<circle cx="651.528" cy="312.107" r="38.9387" fill="white"/>
<circle cx="553.486" cy="403.891" r="38.9387" fill="white"/>
<circle cx="749.57" cy="403.891" r="38.9387" fill="white"/>
<circle cx="646.66" cy="495.675" r="38.9387" fill="white"/>
<circle cx="749.57" cy="602.061" r="38.9387" fill="white"/>
</svg>
