<svg width="3544" height="713" viewBox="0 0 3544 713" fill="none" xmlns="http://www.w3.org/2000/svg">
<line x1="31.6963" y1="584.086" x2="31.6963" y2="403.294" stroke="white" stroke-width="27"/>
<line x1="740.937" y1="609.118" x2="740.937" y2="428.326" stroke="white" stroke-width="27"/>
<line x1="29.2123" y1="598.359" x2="225.992" y2="393.931" stroke="white" stroke-width="27"/>
<line x1="45.2228" y1="395.356" x2="754.463" y2="396.747" stroke="white" stroke-width="27"/>
<line x1="556.344" y1="394.021" x2="759.382" y2="608.879" stroke="white" stroke-width="27"/>
<line x1="663.349" y1="318.056" x2="133.503" y2="318.056" stroke="white" stroke-width="27"/>
<line x1="646.662" y1="177.599" x2="116.816" y2="177.599" stroke="white" stroke-width="27"/>
<line x1="646.662" y1="44.095" x2="116.816" y2="44.0949" stroke="white" stroke-width="27"/>
<line x1="647.5" y1="40.4023" x2="647.5" y2="326.887" stroke="white" stroke-width="27"/>
<line x1="134.488" y1="36.1575" x2="134.488" y2="322.642" stroke="white" stroke-width="27"/>
<line x1="130.787" y1="306.194" x2="29.9636" y2="412.58" stroke="white" stroke-width="27"/>
<line x1="661.326" y1="298.545" x2="560.503" y2="404.931" stroke="white" stroke-width="27"/>
<line x1="747.547" y1="402.845" x2="646.723" y2="509.231" stroke="white" stroke-width="27"/>
<line x1="745.138" y1="403.079" x2="640.668" y2="300.272" stroke="white" stroke-width="27"/>
<line x1="234.068" y1="412.813" x2="129.597" y2="310.007" stroke="white" stroke-width="27"/>
<line x1="140.198" y1="515.027" x2="35.7272" y2="412.22" stroke="white" stroke-width="27"/>
<circle cx="38.9387" cy="601.464" r="38.9387" fill="white"/>
<circle cx="133.504" cy="495.078" r="38.9387" fill="white"/>
<circle cx="38.9387" cy="403.294" r="38.9387" fill="white"/>
<circle cx="230.155" cy="403.294" r="38.9387" fill="white"/>
<circle cx="133.504" cy="311.51" r="38.9387" fill="white"/>
<circle cx="133.504" cy="172.443" r="38.9387" fill="white"/>
<circle cx="133.504" cy="38.9389" r="38.9387" fill="white"/>
<circle cx="390.082" cy="38.9389" r="38.9387" fill="white"/>
<circle cx="646.66" cy="38.9389" r="38.9387" fill="white"/>
<circle cx="646.66" cy="173.833" r="38.9387" fill="white"/>
<circle cx="390.082" cy="173.833" r="38.9387" fill="white"/>
<circle cx="651.528" cy="311.51" r="38.9387" fill="white"/>
<circle cx="553.486" cy="403.294" r="38.9387" fill="white"/>
<circle cx="749.57" cy="403.294" r="38.9387" fill="white"/>
<circle cx="646.66" cy="495.078" r="38.9387" fill="white"/>
<circle cx="749.57" cy="601.464" r="38.9387" fill="white"/>
<path d="M1255.17 331.926V454.094C1250.63 460.1 1243.53 466.691 1233.86 473.869C1224.34 480.9 1211.67 486.979 1195.85 492.106C1180.03 497.233 1160.33 499.797 1136.74 499.797C1116.67 499.797 1098.29 496.428 1081.59 489.689C1064.89 482.805 1050.46 472.771 1038.3 459.587C1026.29 446.403 1016.99 430.363 1010.4 411.467C1003.81 392.424 1000.51 370.744 1000.51 346.428V324.235C1000.51 300.065 1003.51 278.532 1009.52 259.636C1015.67 240.593 1024.46 224.479 1035.89 211.296C1047.31 198.112 1061.08 188.151 1077.2 181.413C1093.46 174.528 1111.84 171.086 1132.35 171.086C1158.57 171.086 1180.25 175.48 1197.39 184.27C1214.67 192.912 1228 204.924 1237.38 220.305C1246.75 235.686 1252.68 253.264 1255.17 273.039H1201.12C1199.36 261.906 1195.92 251.945 1190.79 243.156C1185.81 234.367 1178.64 227.482 1169.26 222.502C1160.03 217.375 1148.02 214.812 1133.23 214.812C1120.48 214.812 1109.28 217.229 1099.61 222.062C1089.94 226.896 1081.88 234.001 1075.44 243.376C1069.14 252.751 1064.38 264.177 1061.16 277.653C1057.93 291.13 1056.32 306.511 1056.32 323.796V346.428C1056.32 364.006 1058.15 379.606 1061.81 393.229C1065.62 406.853 1071.04 418.352 1078.07 427.727C1085.25 437.102 1093.97 444.206 1104.22 449.04C1114.48 453.728 1126.05 456.071 1138.94 456.071C1151.54 456.071 1161.86 455.046 1169.92 452.995C1177.98 450.798 1184.35 448.234 1189.04 445.305C1193.87 442.229 1197.61 439.299 1200.24 436.516V373.015H1133.67V331.926H1255.17ZM1364.16 302.922V495.402H1311.2V257.658H1361.74L1364.16 302.922ZM1436.89 256.12L1436.45 305.339C1433.23 304.753 1429.71 304.313 1425.9 304.021C1422.24 303.728 1418.58 303.581 1414.92 303.581C1405.83 303.581 1397.85 304.899 1390.96 307.536C1384.08 310.026 1378.29 313.688 1373.61 318.522C1369.07 323.21 1365.55 328.923 1363.06 335.661C1360.57 342.399 1359.1 349.943 1358.67 358.293L1346.58 359.172C1346.58 344.23 1348.04 330.388 1350.97 317.644C1353.9 304.899 1358.3 293.693 1364.16 284.025C1370.16 274.357 1377.63 266.813 1386.57 261.394C1395.65 255.974 1406.13 253.264 1417.99 253.264C1421.21 253.264 1424.66 253.557 1428.32 254.143C1432.13 254.729 1434.98 255.388 1436.89 256.12ZM1596.19 447.722V334.343C1596.19 325.847 1594.65 318.522 1591.58 312.37C1588.5 306.218 1583.81 301.457 1577.51 298.088C1571.36 294.719 1563.6 293.034 1554.22 293.034C1545.58 293.034 1538.11 294.499 1531.81 297.429C1525.51 300.358 1520.6 304.313 1517.09 309.294C1513.57 314.274 1511.81 319.914 1511.81 326.213H1459.08C1459.08 316.838 1461.35 307.756 1465.89 298.967C1470.43 290.178 1477.02 282.341 1485.67 275.456C1494.31 268.571 1504.64 263.151 1516.65 259.196C1528.66 255.241 1542.14 253.264 1557.08 253.264C1574.95 253.264 1590.77 256.267 1604.54 262.272C1618.46 268.278 1629.37 277.36 1637.28 289.519C1645.33 301.53 1649.36 316.618 1649.36 334.782V440.471C1649.36 451.311 1650.1 461.052 1651.56 469.694C1653.17 478.19 1655.44 485.588 1658.37 491.887V495.402H1604.1C1601.61 489.689 1599.63 482.438 1598.17 473.649C1596.85 464.714 1596.19 456.071 1596.19 447.722ZM1603.88 350.822L1604.32 383.562H1566.31C1556.49 383.562 1547.85 384.514 1540.38 386.418C1532.91 388.176 1526.68 390.812 1521.7 394.328C1516.72 397.844 1512.99 402.092 1510.5 407.072C1508.01 412.053 1506.76 417.692 1506.76 423.991C1506.76 430.29 1508.23 436.076 1511.16 441.35C1514.08 446.477 1518.33 450.505 1523.9 453.435C1529.61 456.364 1536.5 457.829 1544.55 457.829C1555.39 457.829 1564.84 455.632 1572.9 451.237C1581.1 446.696 1587.55 441.203 1592.23 434.758C1596.92 428.166 1599.41 421.94 1599.71 416.081L1616.84 439.592C1615.09 445.598 1612.08 452.043 1607.83 458.928C1603.59 465.812 1598.02 472.404 1591.14 478.703C1584.4 484.855 1576.27 489.909 1566.75 493.864C1557.37 497.819 1546.53 499.797 1534.23 499.797C1518.7 499.797 1504.86 496.721 1492.7 490.568C1480.54 484.27 1471.02 475.847 1464.13 465.3C1457.25 454.606 1453.81 442.521 1453.81 429.045C1453.81 416.447 1456.15 405.314 1460.84 395.646C1465.67 385.832 1472.7 377.629 1481.93 371.037C1491.31 364.445 1502.73 359.465 1516.21 356.096C1529.69 352.58 1545.07 350.822 1562.35 350.822H1603.88ZM1757.91 303.361V586.809H1704.95V257.658H1753.73L1757.91 303.361ZM1912.82 374.333V378.947C1912.82 396.232 1910.76 412.272 1906.66 427.067C1902.71 441.716 1896.78 454.533 1888.87 465.52C1881.1 476.359 1871.51 484.782 1860.08 490.788C1848.66 496.794 1835.47 499.797 1820.53 499.797C1805.74 499.797 1792.77 497.087 1781.64 491.667C1770.65 486.101 1761.35 478.264 1753.73 468.156C1746.12 458.049 1739.96 446.184 1735.28 432.561C1730.74 418.791 1727.51 403.703 1725.61 387.297V369.499C1727.51 352.067 1730.74 336.247 1735.28 322.038C1739.96 307.829 1746.12 295.598 1753.73 285.344C1761.35 275.09 1770.65 267.18 1781.64 261.613C1792.62 256.047 1805.44 253.264 1820.09 253.264C1835.03 253.264 1848.29 256.193 1859.86 262.053C1871.43 267.766 1881.17 275.969 1889.08 286.662C1897 297.209 1902.93 309.953 1906.88 324.895C1910.84 339.689 1912.82 356.169 1912.82 374.333ZM1859.86 378.947V374.333C1859.86 363.347 1858.84 353.166 1856.79 343.791C1854.73 334.27 1851.51 325.92 1847.12 318.742C1842.72 311.564 1837.08 305.998 1830.2 302.043C1823.46 297.941 1815.33 295.891 1805.81 295.891C1796.43 295.891 1788.38 297.502 1781.64 300.725C1774.9 303.801 1769.26 308.122 1764.72 313.688C1760.18 319.255 1756.66 325.773 1754.17 333.244C1751.68 340.568 1749.92 348.552 1748.9 357.194V399.821C1750.66 410.368 1753.66 420.036 1757.91 428.825C1762.16 437.614 1768.16 444.646 1775.93 449.919C1783.84 455.046 1793.94 457.609 1806.25 457.609C1815.77 457.609 1823.9 455.559 1830.64 451.457C1837.38 447.355 1842.87 441.716 1847.12 434.538C1851.51 427.214 1854.73 418.791 1856.79 409.27C1858.84 399.748 1859.86 389.641 1859.86 378.947ZM2010.15 157.902V495.402H1957.42V157.902H2010.15ZM2000.93 367.741L1983.79 367.521C1983.93 351.115 1986.2 335.954 1990.6 322.038C1995.14 308.122 2001.44 296.037 2009.5 285.783C2017.7 275.383 2027.51 267.399 2038.94 261.833C2050.36 256.12 2063.04 253.264 2076.95 253.264C2088.67 253.264 2099.22 254.875 2108.59 258.098C2118.11 261.32 2126.32 266.521 2133.2 273.698C2140.09 280.729 2145.29 289.958 2148.8 301.384C2152.46 312.663 2154.29 326.433 2154.29 342.692V495.402H2101.12V342.253C2101.12 330.827 2099.44 321.745 2096.07 315.007C2092.84 308.269 2088.08 303.435 2081.79 300.505C2075.49 297.429 2067.8 295.891 2058.71 295.891C2049.19 295.891 2040.77 297.795 2033.45 301.604C2026.27 305.412 2020.26 310.612 2015.43 317.204C2010.59 323.796 2006.93 331.413 2004.44 340.056C2002.1 348.698 2000.93 357.927 2000.93 367.741ZM2333.15 350.822H2251.63L2251.19 310.612H2322.39C2334.4 310.612 2344.58 308.854 2352.93 305.339C2361.42 301.677 2367.87 296.477 2372.26 289.738C2376.66 282.854 2378.86 274.577 2378.86 264.909C2378.86 254.216 2376.8 245.5 2372.7 238.762C2368.6 232.023 2362.3 227.116 2353.81 224.04C2345.46 220.964 2334.76 219.426 2321.73 219.426H2268.33V495.402H2213.18V175.48H2321.73C2339.3 175.48 2354.98 177.165 2368.75 180.534C2382.66 183.903 2394.46 189.177 2404.12 196.354C2413.94 203.386 2421.34 212.321 2426.32 223.161C2431.44 234.001 2434.01 246.892 2434.01 261.833C2434.01 275.017 2430.86 287.102 2424.56 298.088C2418.26 308.928 2408.96 317.79 2396.65 324.675C2384.35 331.56 2369.04 335.661 2350.73 336.979L2333.15 350.822ZM2330.74 495.402H2234.28L2259.1 451.677H2330.74C2343.19 451.677 2353.59 449.626 2361.94 445.524C2370.29 441.276 2376.51 435.49 2380.61 428.166C2384.86 420.695 2386.99 411.979 2386.99 402.019C2386.99 391.618 2385.15 382.609 2381.49 374.992C2377.83 367.229 2372.04 361.296 2364.13 357.194C2356.22 352.946 2345.9 350.822 2333.15 350.822H2271.19L2271.63 310.612H2352.27L2364.79 325.773C2382.37 326.359 2396.8 330.241 2408.08 337.419C2419.5 344.597 2428 353.898 2433.57 365.324C2439.13 376.75 2441.92 389.055 2441.92 402.238C2441.92 422.6 2437.45 439.665 2428.51 453.435C2419.72 467.204 2407.05 477.678 2390.5 484.855C2373.95 491.887 2354.03 495.402 2330.74 495.402ZM2597.04 499.797C2579.47 499.797 2563.57 496.94 2549.36 491.228C2535.3 485.368 2523.29 477.238 2513.33 466.838C2503.51 456.438 2495.97 444.206 2490.7 430.144C2485.42 416.081 2482.79 400.92 2482.79 384.66V375.871C2482.79 357.268 2485.5 340.422 2490.92 325.334C2496.34 310.246 2503.88 297.355 2513.55 286.662C2523.22 275.822 2534.64 267.546 2547.83 261.833C2561.01 256.12 2575.29 253.264 2590.67 253.264C2607.66 253.264 2622.53 256.12 2635.28 261.833C2648.02 267.546 2658.57 275.603 2666.92 286.003C2675.41 296.257 2681.71 308.488 2685.81 322.697C2690.06 336.906 2692.19 352.58 2692.19 369.719V392.351H2508.49V354.338H2639.89V350.163C2639.6 340.642 2637.69 331.706 2634.18 323.356C2630.81 315.007 2625.61 308.269 2618.58 303.142C2611.55 298.015 2602.17 295.451 2590.45 295.451C2581.66 295.451 2573.83 297.355 2566.94 301.164C2560.2 304.826 2554.56 310.173 2550.02 317.204C2545.48 324.235 2541.97 332.731 2539.48 342.692C2537.13 352.507 2535.96 363.566 2535.96 375.871V384.66C2535.96 395.061 2537.35 404.729 2540.13 413.664C2543.06 422.453 2547.31 430.144 2552.88 436.735C2558.45 443.327 2565.18 448.527 2573.09 452.336C2581 455.998 2590.01 457.829 2600.12 457.829C2612.86 457.829 2624.22 455.266 2634.18 450.139C2644.14 445.012 2652.78 437.761 2660.11 428.386L2688.01 455.412C2682.88 462.883 2676.22 470.061 2668.02 476.945C2659.81 483.684 2649.78 489.177 2637.91 493.425C2626.19 497.673 2612.57 499.797 2597.04 499.797ZM2786.01 308.415V495.402H2733.05V257.658H2782.93L2786.01 308.415ZM2776.56 367.741L2759.42 367.521C2759.57 350.676 2761.91 335.222 2766.45 321.159C2771.14 307.097 2777.59 295.012 2785.79 284.904C2794.14 274.797 2804.1 267.033 2815.67 261.613C2827.24 256.047 2840.13 253.264 2854.34 253.264C2865.77 253.264 2876.1 254.875 2885.33 258.098C2894.7 261.174 2902.68 266.228 2909.28 273.259C2916.01 280.29 2921.14 289.445 2924.66 300.725C2928.17 311.857 2929.93 325.554 2929.93 341.813V495.402H2876.76V341.594C2876.76 330.168 2875.07 321.159 2871.7 314.567C2868.48 307.829 2863.72 303.068 2857.42 300.285C2851.27 297.355 2843.58 295.891 2834.35 295.891C2825.27 295.891 2817.14 297.795 2809.96 301.604C2802.78 305.412 2796.7 310.612 2791.72 317.204C2786.89 323.796 2783.15 331.413 2780.52 340.056C2777.88 348.698 2776.56 357.927 2776.56 367.741ZM3081.1 457.609C3089.74 457.609 3097.51 455.925 3104.39 452.556C3111.42 449.04 3117.06 444.206 3121.31 438.054C3125.71 431.901 3128.12 424.797 3128.56 416.74H3178.44C3178.15 432.121 3173.61 446.11 3164.82 458.708C3156.03 471.306 3144.38 481.34 3129.88 488.811C3115.38 496.135 3099.34 499.797 3081.76 499.797C3063.6 499.797 3047.78 496.721 3034.3 490.568C3020.82 484.27 3009.62 475.627 3000.68 464.641C2991.75 453.654 2985.01 440.983 2980.47 426.628C2976.07 412.272 2973.88 396.892 2973.88 380.485V372.795C2973.88 356.389 2976.07 341.008 2980.47 326.652C2985.01 312.15 2991.75 299.406 3000.68 288.42C3009.62 277.434 3020.82 268.864 3034.3 262.712C3047.78 256.413 3063.52 253.264 3081.54 253.264C3100.58 253.264 3117.28 257.072 3131.64 264.689C3145.99 272.16 3157.27 282.634 3165.48 296.11C3173.83 309.44 3178.15 324.968 3178.44 342.692H3128.56C3128.12 333.903 3125.93 325.993 3121.97 318.962C3118.16 311.784 3112.74 306.071 3105.71 301.823C3098.83 297.575 3090.55 295.451 3080.88 295.451C3070.19 295.451 3061.33 297.648 3054.29 302.043C3047.26 306.291 3041.77 312.15 3037.82 319.621C3033.86 326.945 3031 335.222 3029.25 344.45C3027.63 353.532 3026.83 362.98 3026.83 372.795V380.485C3026.83 390.3 3027.63 399.821 3029.25 409.05C3030.86 418.278 3033.64 426.555 3037.6 433.879C3041.7 441.057 3047.26 446.843 3054.29 451.237C3061.33 455.485 3070.26 457.609 3081.1 457.609ZM3271.38 157.902V495.402H3218.65V157.902H3271.38ZM3262.16 367.741L3245.02 367.521C3245.16 351.115 3247.43 335.954 3251.83 322.038C3256.37 308.122 3262.67 296.037 3270.73 285.783C3278.93 275.383 3288.74 267.399 3300.17 261.833C3311.59 256.12 3324.27 253.264 3338.18 253.264C3349.9 253.264 3360.45 254.875 3369.82 258.098C3379.34 261.32 3387.55 266.521 3394.43 273.698C3401.32 280.729 3406.52 289.958 3410.03 301.384C3413.69 312.663 3415.53 326.433 3415.53 342.692V495.402H3362.35V342.253C3362.35 330.827 3360.67 321.745 3357.3 315.007C3354.08 308.269 3349.31 303.435 3343.02 300.505C3336.72 297.429 3329.03 295.891 3319.94 295.891C3310.42 295.891 3302 297.795 3294.68 301.604C3287.5 305.412 3281.49 310.612 3276.66 317.204C3271.82 323.796 3268.16 331.413 3265.67 340.056C3263.33 348.698 3262.16 357.927 3262.16 367.741Z" fill="white"/>
</svg>
