<?xml version="1.0" encoding="UTF-8" standalone="no"?>
<!-- Created with Inkscape (http://www.inkscape.org/) -->

<svg
   version="1.1"
   id="svg2"
   width="800"
   height="800"
   viewBox="0 0 800 800"
   xmlns="http://www.w3.org/2000/svg"
   xmlns:svg="http://www.w3.org/2000/svg">
  <defs
     id="defs6" />
  <g
     id="g8"
     transform="matrix(1.3333333,0,0,1.3333333,0,2e-5)">
    <g
       id="g10">
      <g
         id="g12">
        <path
           d="m 519.547,287.398 c -15.254,-0.003 -29.445,4.239 -41.535,11.61 -4.551,2.773 -10.246,2.879 -14.891,0.265 -4.644,-2.609 -7.504,-7.527 -7.504,-12.855 V 190.57 c 0,-14.746 -12.398,-26.609 -27.152,-26.609 H 311.047 c -5.215,0 -10.043,-2.758 -12.692,-7.246 -2.648,-4.492 -2.734,-10.051 -0.21,-14.613 6.402,-11.567 10.043,-24.891 10.043,-39.024 0,-44.433 -36.024,-80.48 -80.469,-80.48 -44.43,0 -80.449,36.058 -80.449,80.492 0,14.133 3.644,27.453 10.042,39.012 2.528,4.566 2.45,10.125 -0.199,14.621 -2.656,4.496 -7.484,7.238 -12.703,7.238 H 26.996 C 12.242,163.961 0,175.824 0,190.57 v 93.492 c 0,5.192 2.73,9.997 7.188,12.657 4.453,2.656 9.984,2.781 14.546,0.312 11.368,-6.144 24.375,-9.636 38.204,-9.633 44.441,-0.003 80.46,36.028 80.46,80.465 0,44.438 -36.019,80.465 -80.46,80.453 -13.829,0 -26.84,-3.492 -38.204,-9.636 -4.566,-2.469 -10.097,-2.352 -14.558,0.308 C 2.719,441.648 0,446.461 0,451.652 v 99.036 c 0,14.757 12.238,26.714 26.996,26.714 h 401.469 c 14.75,0 27.152,-11.957 27.152,-26.714 V 449.293 c 0,-5.324 2.871,-10.234 7.512,-12.844 4.641,-2.609 10.332,-2.519 14.883,0.254 12.086,7.371 26.281,11.613 41.531,11.613 44.441,0.012 80.457,-36.015 80.457,-80.453 0,-44.437 -36.016,-80.472 -80.453,-80.465 z"
           style="fill:#ffffff;fill-opacity:1;fill-rule:nonzero;stroke:#ffffff;stroke-width:1.22633;stroke-linecap:butt;stroke-linejoin:miter;stroke-miterlimit:4;stroke-dasharray:none;stroke-opacity:1"
           id="path14" />
      </g>
    </g>
  </g>
</svg>
