<svg width="596" height="821" viewBox="0 0 596 821" fill="none" xmlns="http://www.w3.org/2000/svg">
<path d="M197 819.478C190.675 818.759 184.938 818.137 184.25 818.096C183.562 818.054 183 817.635 183 817.165C183 816.694 186.713 815.527 191.25 814.571C242.414 803.792 288.87 783.458 339.5 749.68C417.93 697.355 457.787 643.894 473.067 570.523C483.813 518.925 475.941 469.681 450.981 432.362C433.641 406.435 412.193 389.449 385.469 380.478C326.293 360.613 257.707 382.516 213.204 435.491C205.474 444.692 191.273 465.533 189.009 470.999C187.212 475.336 185.96 474.72 186.511 469.77C188.656 450.497 189.453 445.127 191.645 435.172C201.907 388.578 230.292 344.194 267.5 316.563C271.9 313.295 275.725 310.35 276 310.018C278.409 307.111 285.268 303.214 306.5 292.695C349.02 271.628 396.345 265.634 439.136 275.897C450.132 278.534 470.207 285.202 472.5 286.979C473.05 287.405 476.443 288.719 480.04 289.899C489.453 292.986 513.166 308.377 526.92 320.327C546.882 337.672 567.574 366.782 578.548 392.961C598.778 441.221 601.525 502.287 585.817 554.52C572.776 597.886 559.56 626.572 537.905 658.52C516.13 690.644 480.753 726.479 448.366 749.218C419.164 769.719 381.208 789.012 346.5 800.995C321.572 809.602 289.549 816.663 262.622 819.491C245.135 821.327 213.211 821.321 197 819.478Z" fill="url(#paint0_linear_279_208)"/>
<line x1="213.571" y1="423.239" x2="292.571" y2="314.239" stroke="#027BF1" stroke-width="6"/>
<path d="M190.25 814.571C185.713 815.527 182 816.694 182 817.165C182 817.165 228.156 815.89 254.5 810.987C280.844 806.083 321.669 788.342 349.5 773.986C377.331 759.631 390 754.987 417.5 731.486C445 707.986 453.56 688.234 470 656.486C486.44 624.739 499.866 578.987 505 547.987C510.134 516.987 517 510.986 510 472.487C503 433.987 490.5 410.487 468.5 384.487C446.5 358.486 430.881 348.492 400 340.987C369.119 333.482 347.388 337.185 315.5 346.986C283.612 356.788 240.669 382.691 221.5 405.486C202.331 428.282 187.5 473.5 187.5 473.5C189.764 468.034 204.77 445.201 212.5 436C257.003 383.026 325.293 360.613 384.469 380.478C411.193 389.449 432.641 406.435 449.981 432.362C474.941 469.681 482.813 518.925 472.067 570.523C456.787 643.893 416.93 697.355 338.5 749.68C287.87 783.458 241.414 803.792 190.25 814.571Z" fill="url(#paint1_linear_279_208)"/>
<path d="M208.965 742.141C191.842 740.018 177.555 736.214 159.465 728.962C92.3647 702.062 44.0422 644.512 20.6024 563.581C10.7501 529.563 7.95092 507.814 8.00065 465.665C8.03555 436.121 8.96893 423.21 11.869 412.159C12.4463 409.959 14.5062 399.983 16.4465 389.99C24.2249 349.928 38.163 316.511 62.218 280.249C88.115 241.21 120.072 208.851 156.965 184.308C163.29 180.1 170.443 175.244 172.86 173.517C188.375 162.433 231.252 141.422 266.491 127.635C314.823 108.726 326.434 103.935 337.88 98.1778C364.813 84.6303 380.387 69.875 388.562 50.1593C391.237 43.7074 391.465 42.1807 391.465 30.6593C391.465 18.192 391.454 18.1377 387.543 9.88053C384.489 3.43094 383.888 1.33599 384.825 0.398988C386.482 -1.25807 393.075 2.33039 401.732 9.60044C416.343 21.872 427.301 39.5676 433.042 60.1593C434.837 66.5977 435.357 71.5753 435.709 85.6593C436.109 101.647 435.93 104.121 433.639 114.284C424.49 154.868 398.774 186.881 352.636 215.124C346.681 218.77 330.931 227.637 317.636 234.829C262.334 264.746 240.434 280.009 212.465 308.128C170.181 350.639 148.122 395.12 144.002 446.182C140.161 493.791 155.944 539.655 187.115 571.465C206.294 591.038 228.77 603.198 256.965 609.258C268.654 611.77 295.92 611.84 308.059 609.389C337.256 603.493 360.314 589.377 373.881 569.092C381.514 557.681 383.465 550.773 383.465 535.159C383.465 522.798 383.324 521.893 380.613 516.742C374.997 506.073 363.114 495.827 348.587 489.126C340.9 485.58 327.756 481.165 321.715 480.099C319.652 479.735 317.965 478.968 317.965 478.395C317.965 477.075 356.066 478.061 367.32 479.671C398.74 484.167 421.268 496.782 432.829 516.353C452.414 549.51 445.214 599.896 414.324 645.851C406.148 658.015 389.538 678.659 387.928 678.659C387.418 678.659 384.134 681.527 380.63 685.031C377.125 688.536 372.054 692.686 369.361 694.253C366.668 695.82 363.565 697.945 362.465 698.974C353.51 707.351 318.816 725.715 299.965 732.056C269.545 742.288 238.186 745.764 208.965 742.141Z" fill="url(#paint2_linear_279_208)"/>
<path d="M401.732 9.60044C393.076 2.33039 386.482 -1.25807 384.825 0.398988C384.825 0.398988 398.5 12.5 403 25.5C407.5 38.5 412.802 52 408.5 69C404.198 86 389.5 113 381 126C372.5 139 372.915 139.918 367.5 149.5C362.086 159.082 284.434 221.029 271 228.5C257.567 235.971 233.06 256.393 220 264.5C206.941 272.607 182.792 291.917 166.5 310C150.209 328.083 137.099 345.319 131 359.5C124.902 373.681 118.966 386.081 115 401C111.034 415.919 106.585 431.254 107.02 456C107.454 480.746 107.981 495.662 117.52 518.5C127.059 541.338 148.054 559.48 165.52 578.5C182.986 597.52 190.179 612.454 213.02 624.5C235.861 636.546 287.13 647.664 322 638C356.87 628.336 396.163 594.462 399 586L399.192 585.429C401.911 577.326 403.489 572.625 403 556.5C402.502 540.065 401.012 538.016 393.094 527.129L393 527C385 516 378 512.5 378 512.5L378.054 512.603C380.748 517.72 383.465 522.881 383.465 535.159C383.465 550.773 381.514 557.681 373.882 569.092C360.314 589.377 337.256 603.493 308.059 609.389C295.92 611.84 268.654 611.77 256.965 609.258C228.77 603.198 206.295 591.038 187.115 571.465C155.944 539.655 140.161 493.791 144.002 446.182C148.122 395.12 170.181 350.639 212.465 308.128C240.434 280.009 262.334 264.746 317.637 234.829C330.931 227.637 346.681 218.77 352.637 215.124C398.774 186.881 424.49 154.868 433.639 114.284C435.93 104.121 436.109 101.647 435.709 85.6593C435.358 71.5753 434.837 66.5977 433.042 60.1593C427.302 39.5676 416.343 21.872 401.732 9.60044Z" fill="url(#paint3_linear_279_208)"/>
<path d="M549 417.5C549 417.5 529.822 376.473 516 353.5C502.178 330.527 477 297 477 297" stroke="#14CFFD" stroke-width="7"/>
<path d="M421.5 735.5C421.5 735.5 468.936 669.057 481 640C493.064 610.943 498.241 587.605 503 562.5C507.759 537.395 510.5 497.5 510.5 497.5" stroke="#006BD7" stroke-width="7"/>
<path d="M421 732C421 732 377.286 763.241 347 778C316.714 792.759 273.5 809.5 258.5 811C243.5 812.5 193 816.5 193 816.5" stroke="#002F75" stroke-width="5"/>
<line x1="379.261" y1="141.672" x2="275.261" y2="229.672" stroke="#15C9FF" stroke-width="7"/>
<line x1="184.565" y1="181.87" x2="278.565" y2="228.87" stroke="#13B3FF" stroke-width="7"/>
<line x1="92.4281" y1="319.873" x2="279.428" y2="225.873" stroke="#09A6FB" stroke-width="7"/>
<line x1="93.0727" y1="323.081" x2="190.073" y2="175.081" stroke="#039BFB" stroke-width="7"/>
<line x1="19.9966" y1="445.203" x2="92.9966" y2="323.203" stroke="#088DFA" stroke-width="7"/>
<line x1="133.562" y1="529.657" x2="94.5623" y2="325.657" stroke="#0180FA" stroke-width="7"/>
<line x1="23.315" y1="443.877" x2="86.315" y2="629.877" stroke="#0056CF" stroke-width="7"/>
<line x1="228.732" y1="634.49" x2="85.7316" y2="623.49" stroke="#0258C7" stroke-width="7"/>
<line x1="208.94" y1="717.83" x2="83.94" y2="626.83" stroke="#005FE7" stroke-width="7"/>
<line x1="210.314" y1="717.568" x2="375.314" y2="684.568" stroke="#054298" stroke-width="7"/>
<line x1="205.22" y1="715.986" x2="332.22" y2="640.986" stroke="#0159C6" stroke-width="7"/>
<line x1="227.163" y1="635.504" x2="334.163" y2="640.504" stroke="#005ED5" stroke-width="7"/>
<line x1="406.024" y1="585.855" x2="327.024" y2="641.855" stroke="#006EEE" stroke-width="7"/>
<line x1="407.353" y1="584.003" x2="375.353" y2="691.003" stroke="#0160D6" stroke-width="7"/>
<line x1="570.603" y1="568.34" x2="419.603" y2="736.34" stroke="#0163D6" stroke-width="7"/>
<line x1="576.305" y1="571.234" x2="513.305" y2="495.234" stroke="#0694F9" stroke-width="7"/>
<line x1="550.683" y1="412.342" x2="510.683" y2="492.342" stroke="#07AEFC" stroke-width="6"/>
<line x1="548.463" y1="414.145" x2="415.463" y2="349.145" stroke="#1AC3FF" stroke-width="7"/>
<line x1="483.181" y1="300.737" x2="419.181" y2="351.737" stroke="#0AB8F9" stroke-width="7"/>
<line x1="481.199" y1="296.494" x2="288.199" y2="307.494" stroke="#13BCFF" stroke-width="7"/>
<line x1="421.997" y1="352.353" x2="284.997" y2="311.353" stroke="#0EA8FF" stroke-width="7"/>
<line x1="332.17" y1="643.929" x2="374.17" y2="687.929" stroke="#0559D0" stroke-width="6"/>
<line x1="203.605" y1="718.151" x2="223.605" y2="638.151" stroke="#0052C7" stroke-width="7"/>
<line x1="132.109" y1="530.607" x2="86.1093" y2="619.607" stroke="#045BCF" stroke-width="7"/>
<line x1="25.5468" y1="439.916" x2="134.547" y2="529.916" stroke="#077AF9" stroke-width="8"/>
<line x1="377.756" y1="138.417" x2="178.756" y2="182.417" stroke="#14C6FF" stroke-width="7"/>
<path d="M131 529.5C131 529.5 159.049 563.507 178 584C196.951 604.493 229.5 633.5 229.5 633.5" stroke="#0169E9" stroke-width="7"/>
<path d="M574 566.5C574 566.5 571.138 519.595 566 490C560.862 460.405 547.5 414.5 547.5 414.5" stroke="#0BB1FC" stroke-width="7"/>
<circle cx="377" cy="135" r="15" fill="#15CEFF"/>
<circle cx="132" cy="529" r="14" fill="#017FFB"/>
<circle cx="226.5" cy="635.5" r="12.5" fill="#0172F8"/>
<circle cx="405.5" cy="588.5" r="11.5" fill="#0083FA"/>
<circle cx="327.5" cy="642.5" r="11.5" fill="#0075EF"/>
<circle cx="204" cy="715" r="16" fill="#00337C"/>
<circle cx="86" cy="624" r="17" fill="#005AD5"/>
<circle cx="375.5" cy="685.5" r="12.5" fill="#053E8B"/>
<circle cx="277" cy="227" r="16" fill="#0DBAFE"/>
<circle cx="185.5" cy="179.5" r="17.5" fill="#0164D8"/>
<circle cx="93.5" cy="319.5" r="17.5" fill="#0189FC"/>
<ellipse cx="23" cy="437.5" rx="23" ry="23.5" fill="#014CB0"/>
<circle cx="421.5" cy="734.5" r="12.5" fill="#004FB6"/>
<circle cx="512" cy="498" r="12" fill="#0397FC"/>
<circle cx="416.5" cy="351.5" r="13.5" fill="#0EB9FE"/>
<circle cx="292" cy="312" r="15" fill="#014AA2"/>
<circle cx="478" cy="300" r="16" fill="#0277E5"/>
<circle cx="548" cy="415" r="17" fill="#13C4FF"/>
<circle cx="573" cy="566" r="17" fill="#0062D0"/>
<defs>
<linearGradient id="paint0_linear_279_208" x1="389" y1="473" x2="537.5" y2="261.5" gradientUnits="userSpaceOnUse">
<stop stop-color="#004698"/>
<stop offset="1" stop-color="#00A7FF"/>
</linearGradient>
<linearGradient id="paint1_linear_279_208" x1="261.5" y1="652" x2="571" y2="358.5" gradientUnits="userSpaceOnUse">
<stop offset="0.0169995" stop-color="#022B5D"/>
<stop offset="1" stop-color="#0994F9"/>
</linearGradient>
<linearGradient id="paint2_linear_279_208" x1="173" y1="-46.5" x2="24.5" y2="776" gradientUnits="userSpaceOnUse">
<stop stop-color="#0591FB"/>
<stop offset="1" stop-color="#002462"/>
</linearGradient>
<linearGradient id="paint3_linear_279_208" x1="231" y1="67" x2="372" y2="575" gradientUnits="userSpaceOnUse">
<stop stop-color="#04A9FF"/>
<stop offset="1" stop-color="#042D60"/>
</linearGradient>
</defs>
</svg>
