<svg width="3279" height="949" viewBox="0 0 3279 949" fill="none" xmlns="http://www.w3.org/2000/svg">
<path d="M1075.17 568.523V690.691C1070.63 696.697 1063.53 703.289 1053.86 710.467C1044.34 717.498 1031.67 723.577 1015.85 728.704C1000.03 733.831 980.325 736.395 956.741 736.395C936.673 736.395 918.289 733.025 901.59 726.287C884.891 719.402 870.462 709.368 858.304 696.185C846.292 683.001 836.99 666.961 830.398 648.064C823.807 629.021 820.511 607.342 820.511 583.025V560.833C820.511 536.663 823.514 515.13 829.52 496.233C835.672 477.19 844.461 461.077 855.887 447.894C867.312 434.71 881.082 424.749 897.195 418.011C913.455 411.126 931.839 407.684 952.347 407.684C978.567 407.684 1000.25 412.078 1017.39 420.867C1034.67 429.51 1048 441.521 1057.38 456.902C1066.75 472.283 1072.68 489.861 1075.17 509.637H1021.12C1019.36 498.504 1015.92 488.543 1010.79 479.754C1005.81 470.965 998.636 464.08 989.261 459.1C980.032 453.973 968.021 451.409 953.226 451.409C940.481 451.409 929.275 453.826 919.607 458.66C909.939 463.494 901.883 470.599 895.438 479.974C889.139 489.349 884.378 500.774 881.155 514.251C877.933 527.728 876.321 543.108 876.321 560.394V583.025C876.321 600.604 878.152 616.204 881.814 629.827C885.623 643.45 891.043 654.949 898.074 664.324C905.252 673.699 913.968 680.804 924.222 685.638C934.476 690.325 946.048 692.669 958.938 692.669C971.536 692.669 981.863 691.644 989.92 689.593C997.977 687.396 1004.35 684.832 1009.04 681.902C1013.87 678.826 1017.61 675.896 1020.24 673.113V609.612H953.665V568.523H1075.17ZM1184.16 539.52V732H1131.2V494.256H1181.74L1184.16 539.52ZM1256.89 492.718L1256.45 541.937C1253.23 541.351 1249.71 540.911 1245.9 540.618C1242.24 540.325 1238.58 540.179 1234.92 540.179C1225.83 540.179 1217.85 541.497 1210.96 544.134C1204.08 546.624 1198.29 550.286 1193.61 555.12C1189.07 559.808 1185.55 565.521 1183.06 572.259C1180.57 578.997 1179.1 586.541 1178.67 594.891L1166.58 595.77C1166.58 580.828 1168.04 566.985 1170.97 554.241C1173.9 541.497 1178.3 530.291 1184.16 520.623C1190.16 510.955 1197.63 503.411 1206.57 497.991C1215.65 492.571 1226.13 489.861 1237.99 489.861C1241.21 489.861 1244.66 490.154 1248.32 490.74C1252.13 491.326 1254.98 491.985 1256.89 492.718ZM1416.19 684.319V570.94C1416.19 562.444 1414.65 555.12 1411.58 548.968C1408.5 542.815 1403.81 538.055 1397.51 534.686C1391.36 531.316 1383.6 529.632 1374.22 529.632C1365.58 529.632 1358.11 531.097 1351.81 534.026C1345.51 536.956 1340.6 540.911 1337.09 545.892C1333.57 550.872 1331.81 556.512 1331.81 562.811H1279.08C1279.08 553.436 1281.35 544.354 1285.89 535.564C1290.43 526.775 1297.02 518.938 1305.67 512.054C1314.31 505.169 1324.64 499.749 1336.65 495.794C1348.66 491.839 1362.14 489.861 1377.08 489.861C1394.95 489.861 1410.77 492.864 1424.54 498.87C1438.46 504.876 1449.37 513.958 1457.28 526.116C1465.33 538.128 1469.36 553.216 1469.36 571.38V677.068C1469.36 687.908 1470.1 697.649 1471.56 706.292C1473.17 714.788 1475.44 722.186 1478.37 728.484V732H1424.1C1421.61 726.287 1419.63 719.036 1418.17 710.247C1416.85 701.312 1416.19 692.669 1416.19 684.319ZM1423.88 587.42L1424.32 620.159H1386.31C1376.49 620.159 1367.85 621.111 1360.38 623.016C1352.91 624.773 1346.68 627.41 1341.7 630.926C1336.72 634.441 1332.99 638.689 1330.5 643.67C1328.01 648.65 1326.76 654.29 1326.76 660.589C1326.76 666.888 1328.23 672.674 1331.16 677.947C1334.08 683.074 1338.33 687.103 1343.9 690.032C1349.61 692.962 1356.5 694.427 1364.55 694.427C1375.39 694.427 1384.84 692.229 1392.9 687.835C1401.1 683.294 1407.55 677.801 1412.23 671.355C1416.92 664.764 1419.41 658.538 1419.71 652.679L1436.84 676.189C1435.09 682.195 1432.08 688.641 1427.83 695.525C1423.59 702.41 1418.02 709.002 1411.14 715.301C1404.4 721.453 1396.27 726.507 1386.75 730.462C1377.37 734.417 1366.53 736.395 1354.23 736.395C1338.7 736.395 1324.86 733.318 1312.7 727.166C1300.54 720.867 1291.02 712.444 1284.13 701.897C1277.25 691.204 1273.81 679.119 1273.81 665.643C1273.81 653.045 1276.15 641.912 1280.84 632.244C1285.67 622.43 1292.7 614.227 1301.93 607.635C1311.31 601.043 1322.73 596.062 1336.21 592.693C1349.69 589.178 1365.07 587.42 1382.35 587.42H1423.88ZM1577.91 539.959V823.406H1524.95V494.256H1573.73L1577.91 539.959ZM1732.82 610.931V615.545C1732.82 632.83 1730.76 648.87 1726.66 663.665C1722.71 678.313 1716.78 691.131 1708.87 702.117C1701.1 712.957 1691.51 721.38 1680.08 727.386C1668.66 733.392 1655.47 736.395 1640.53 736.395C1625.74 736.395 1612.77 733.685 1601.64 728.265C1590.65 722.698 1581.35 714.861 1573.73 704.754C1566.12 694.646 1559.96 682.781 1555.28 669.158C1550.74 655.389 1547.51 640.301 1545.61 623.895V606.097C1547.51 588.665 1550.74 572.845 1555.28 558.636C1559.96 544.427 1566.12 532.195 1573.73 521.941C1581.35 511.688 1590.65 503.777 1601.64 498.211C1612.62 492.645 1625.44 489.861 1640.09 489.861C1655.03 489.861 1668.29 492.791 1679.86 498.65C1691.43 504.363 1701.17 512.566 1709.08 523.26C1717 533.807 1722.93 546.551 1726.88 561.492C1730.84 576.287 1732.82 592.767 1732.82 610.931ZM1679.86 615.545V610.931C1679.86 599.944 1678.84 589.764 1676.79 580.389C1674.73 570.867 1671.51 562.518 1667.12 555.34C1662.72 548.162 1657.08 542.596 1650.2 538.641C1643.46 534.539 1635.33 532.488 1625.81 532.488C1616.43 532.488 1608.38 534.1 1601.64 537.322C1594.9 540.398 1589.26 544.72 1584.72 550.286C1580.18 555.853 1576.66 562.371 1574.17 569.842C1571.68 577.166 1569.92 585.149 1568.9 593.792V636.419C1570.66 646.966 1573.66 656.634 1577.91 665.423C1582.16 674.212 1588.16 681.243 1595.93 686.517C1603.84 691.644 1613.94 694.207 1626.25 694.207C1635.77 694.207 1643.9 692.156 1650.64 688.055C1657.38 683.953 1662.87 678.313 1667.12 671.136C1671.51 663.812 1674.73 655.389 1676.79 645.867C1678.84 636.346 1679.86 626.238 1679.86 615.545ZM1830.15 394.5V732H1777.42V394.5H1830.15ZM1820.93 604.339L1803.79 604.119C1803.93 587.713 1806.2 572.552 1810.6 558.636C1815.14 544.72 1821.44 532.635 1829.5 522.381C1837.7 511.98 1847.51 503.997 1858.94 498.431C1870.36 492.718 1883.04 489.861 1896.95 489.861C1908.67 489.861 1919.22 491.473 1928.59 494.695C1938.11 497.918 1946.32 503.118 1953.2 510.296C1960.09 517.327 1965.29 526.556 1968.8 537.981C1972.46 549.261 1974.29 563.03 1974.29 579.29V732H1921.12V578.851C1921.12 567.425 1919.44 558.343 1916.07 551.604C1912.84 544.866 1908.08 540.032 1901.79 537.103C1895.49 534.026 1887.8 532.488 1878.71 532.488C1869.19 532.488 1860.77 534.393 1853.45 538.201C1846.27 542.01 1840.26 547.21 1835.43 553.802C1830.59 560.394 1826.93 568.011 1824.44 576.653C1822.1 585.296 1820.93 594.524 1820.93 604.339ZM2153.15 587.42H2071.63L2071.19 547.21H2142.39C2154.4 547.21 2164.58 545.452 2172.93 541.937C2181.42 538.274 2187.87 533.074 2192.26 526.336C2196.66 519.451 2198.86 511.175 2198.86 501.507C2198.86 490.813 2196.8 482.098 2192.7 475.359C2188.6 468.621 2182.3 463.714 2173.81 460.638C2165.46 457.562 2154.76 456.023 2141.73 456.023H2088.33V732H2033.18V412.078H2141.73C2159.3 412.078 2174.98 413.763 2188.75 417.132C2202.66 420.501 2214.46 425.774 2224.12 432.952C2233.94 439.983 2241.34 448.919 2246.32 459.759C2251.44 470.599 2254.01 483.489 2254.01 498.431C2254.01 511.614 2250.86 523.699 2244.56 534.686C2238.26 545.525 2228.96 554.388 2216.65 561.272C2204.35 568.157 2189.04 572.259 2170.73 573.577L2153.15 587.42ZM2150.74 732H2054.28L2079.1 688.274H2150.74C2163.19 688.274 2173.59 686.224 2181.94 682.122C2190.29 677.874 2196.51 672.088 2200.61 664.764C2204.86 657.293 2206.99 648.577 2206.99 638.616C2206.99 628.216 2205.15 619.207 2201.49 611.59C2197.83 603.826 2192.04 597.894 2184.13 593.792C2176.22 589.544 2165.9 587.42 2153.15 587.42H2091.19L2091.63 547.21H2172.27L2184.79 562.371C2202.37 562.957 2216.8 566.839 2228.08 574.017C2239.5 581.194 2248 590.496 2253.57 601.922C2259.13 613.348 2261.92 625.652 2261.92 638.836C2261.92 659.197 2257.45 676.263 2248.51 690.032C2239.72 703.802 2227.05 714.275 2210.5 721.453C2193.95 728.484 2174.03 732 2150.74 732ZM2417.04 736.395C2399.47 736.395 2383.57 733.538 2369.36 727.825C2355.3 721.966 2343.29 713.836 2333.33 703.436C2323.51 693.035 2315.97 680.804 2310.7 666.741C2305.42 652.679 2302.79 637.518 2302.79 621.258V612.469C2302.79 593.865 2305.5 577.02 2310.92 561.932C2316.34 546.844 2323.88 533.953 2333.55 523.26C2343.22 512.42 2354.64 504.144 2367.83 498.431C2381.01 492.718 2395.29 489.861 2410.67 489.861C2427.66 489.861 2442.53 492.718 2455.28 498.431C2468.02 504.144 2478.57 512.2 2486.92 522.601C2495.41 532.854 2501.71 545.086 2505.81 559.295C2510.06 573.504 2512.19 589.178 2512.19 606.316V628.948H2328.49V590.936H2459.89V586.761C2459.6 577.239 2457.69 568.304 2454.18 559.954C2450.81 551.604 2445.61 544.866 2438.58 539.739C2431.55 534.612 2422.17 532.049 2410.45 532.049C2401.66 532.049 2393.83 533.953 2386.94 537.762C2380.2 541.424 2374.56 546.771 2370.02 553.802C2365.48 560.833 2361.97 569.329 2359.48 579.29C2357.13 589.104 2355.96 600.164 2355.96 612.469V621.258C2355.96 631.658 2357.35 641.326 2360.13 650.262C2363.06 659.051 2367.31 666.741 2372.88 673.333C2378.45 679.925 2385.18 685.125 2393.09 688.934C2401 692.596 2410.01 694.427 2420.12 694.427C2432.86 694.427 2444.22 691.863 2454.18 686.736C2464.14 681.609 2472.78 674.358 2480.11 664.983L2508.01 692.01C2502.88 699.48 2496.22 706.658 2488.02 713.543C2479.81 720.281 2469.78 725.774 2457.91 730.022C2446.19 734.271 2432.57 736.395 2417.04 736.395ZM2606.01 545.013V732H2553.05V494.256H2602.93L2606.01 545.013ZM2596.56 604.339L2579.42 604.119C2579.57 587.273 2581.91 571.819 2586.45 557.757C2591.14 543.694 2597.59 531.609 2605.79 521.502C2614.14 511.395 2624.1 503.631 2635.67 498.211C2647.24 492.645 2660.13 489.861 2674.34 489.861C2685.77 489.861 2696.1 491.473 2705.33 494.695C2714.7 497.771 2722.68 502.825 2729.28 509.856C2736.01 516.888 2741.14 526.043 2744.66 537.322C2748.17 548.455 2749.93 562.151 2749.93 578.411V732H2696.76V578.191C2696.76 566.766 2695.07 557.757 2691.7 551.165C2688.48 544.427 2683.72 539.666 2677.42 536.883C2671.27 533.953 2663.58 532.488 2654.35 532.488C2645.27 532.488 2637.14 534.393 2629.96 538.201C2622.78 542.01 2616.7 547.21 2611.72 553.802C2606.89 560.394 2603.15 568.011 2600.52 576.653C2597.88 585.296 2596.56 594.524 2596.56 604.339ZM2901.1 694.207C2909.74 694.207 2917.51 692.522 2924.39 689.153C2931.42 685.638 2937.06 680.804 2941.31 674.651C2945.71 668.499 2948.12 661.395 2948.56 653.338H2998.44C2998.15 668.719 2993.61 682.708 2984.82 695.306C2976.03 707.903 2964.38 717.938 2949.88 725.408C2935.38 732.732 2919.34 736.395 2901.76 736.395C2883.6 736.395 2867.78 733.318 2854.3 727.166C2840.82 720.867 2829.62 712.225 2820.68 701.238C2811.75 690.252 2805.01 677.581 2800.47 663.226C2796.07 648.87 2793.88 633.489 2793.88 617.083V609.393C2793.88 592.986 2796.07 577.605 2800.47 563.25C2805.01 548.748 2811.75 536.004 2820.68 525.018C2829.62 514.031 2840.82 505.462 2854.3 499.31C2867.78 493.011 2883.52 489.861 2901.54 489.861C2920.58 489.861 2937.28 493.67 2951.64 501.287C2965.99 508.758 2977.27 519.231 2985.48 532.708C2993.83 546.038 2998.15 561.565 2998.44 579.29H2948.56C2948.12 570.501 2945.93 562.591 2941.97 555.56C2938.16 548.382 2932.74 542.669 2925.71 538.421C2918.83 534.173 2910.55 532.049 2900.88 532.049C2890.19 532.049 2881.33 534.246 2874.29 538.641C2867.26 542.889 2861.77 548.748 2857.82 556.219C2853.86 563.543 2851 571.819 2849.25 581.048C2847.63 590.13 2846.83 599.578 2846.83 609.393V617.083C2846.83 626.897 2847.63 636.419 2849.25 645.647C2850.86 654.876 2853.64 663.152 2857.6 670.477C2861.7 677.654 2867.26 683.44 2874.29 687.835C2881.33 692.083 2890.26 694.207 2901.1 694.207ZM3091.38 394.5V732H3038.65V394.5H3091.38ZM3082.16 604.339L3065.02 604.119C3065.16 587.713 3067.43 572.552 3071.83 558.636C3076.37 544.72 3082.67 532.635 3090.73 522.381C3098.93 511.98 3108.74 503.997 3120.17 498.431C3131.59 492.718 3144.27 489.861 3158.18 489.861C3169.9 489.861 3180.45 491.473 3189.82 494.695C3199.34 497.918 3207.55 503.118 3214.43 510.296C3221.32 517.327 3226.52 526.556 3230.03 537.981C3233.69 549.261 3235.53 563.03 3235.53 579.29V732H3182.35V578.851C3182.35 567.425 3180.67 558.343 3177.3 551.604C3174.08 544.866 3169.31 540.032 3163.02 537.103C3156.72 534.026 3149.03 532.488 3139.94 532.488C3130.42 532.488 3122 534.393 3114.68 538.201C3107.5 542.01 3101.49 547.21 3096.66 553.802C3091.82 560.394 3088.16 568.011 3085.67 576.653C3083.33 585.296 3082.16 594.524 3082.16 604.339Z" fill="black"/>
<path d="M197 819.478C190.675 818.759 184.938 818.137 184.25 818.096C183.562 818.054 183 817.635 183 817.165C183 816.694 186.713 815.527 191.25 814.571C242.414 803.792 288.87 783.458 339.5 749.68C417.93 697.355 457.787 643.894 473.067 570.523C483.813 518.925 475.941 469.681 450.981 432.362C433.641 406.435 412.193 389.449 385.469 380.478C326.293 360.613 257.707 382.516 213.204 435.491C205.474 444.692 191.273 465.533 189.009 470.999C187.212 475.336 185.96 474.72 186.511 469.77C188.656 450.497 189.453 445.127 191.645 435.172C201.907 388.578 230.292 344.194 267.5 316.563C271.9 313.295 275.725 310.35 276 310.018C278.409 307.111 285.268 303.214 306.5 292.695C349.02 271.628 396.345 265.634 439.136 275.897C450.132 278.534 470.207 285.202 472.5 286.979C473.05 287.405 476.443 288.719 480.04 289.899C489.453 292.986 513.166 308.377 526.92 320.327C546.882 337.672 567.574 366.782 578.548 392.961C598.778 441.221 601.525 502.287 585.817 554.52C572.776 597.886 559.56 626.572 537.905 658.52C516.13 690.644 480.753 726.479 448.366 749.218C419.164 769.719 381.208 789.012 346.5 800.995C321.572 809.602 289.549 816.663 262.622 819.491C245.135 821.327 213.211 821.321 197 819.478Z" fill="url(#paint0_linear_279_272)"/>
<line x1="213.571" y1="423.239" x2="292.571" y2="314.239" stroke="#027BF1" stroke-width="6"/>
<path d="M190.25 814.571C185.713 815.527 182 816.694 182 817.165C182 817.165 228.156 815.89 254.5 810.987C280.844 806.083 321.669 788.342 349.5 773.986C377.331 759.631 390 754.987 417.5 731.486C445 707.986 453.56 688.234 470 656.486C486.44 624.739 499.866 578.987 505 547.987C510.134 516.987 517 510.986 510 472.487C503 433.987 490.5 410.487 468.5 384.487C446.5 358.486 430.881 348.492 400 340.987C369.119 333.482 347.388 337.185 315.5 346.986C283.612 356.788 240.669 382.691 221.5 405.486C202.331 428.282 187.5 473.5 187.5 473.5C189.764 468.034 204.77 445.201 212.5 436C257.003 383.026 325.293 360.613 384.469 380.478C411.193 389.449 432.641 406.435 449.981 432.362C474.941 469.681 482.813 518.925 472.067 570.523C456.787 643.893 416.93 697.355 338.5 749.68C287.87 783.458 241.414 803.792 190.25 814.571Z" fill="url(#paint1_linear_279_272)"/>
<path d="M208.965 742.141C191.842 740.018 177.555 736.214 159.465 728.962C92.3647 702.062 44.0422 644.512 20.6024 563.581C10.7501 529.563 7.95092 507.814 8.00065 465.665C8.03555 436.121 8.96893 423.21 11.869 412.159C12.4463 409.959 14.5062 399.983 16.4465 389.99C24.2249 349.928 38.163 316.511 62.218 280.249C88.115 241.21 120.072 208.851 156.965 184.308C163.29 180.1 170.443 175.244 172.86 173.517C188.375 162.433 231.252 141.422 266.491 127.635C314.823 108.726 326.434 103.935 337.88 98.1778C364.813 84.6303 380.387 69.875 388.562 50.1593C391.237 43.7074 391.465 42.1807 391.465 30.6593C391.465 18.192 391.454 18.1377 387.543 9.88053C384.489 3.43094 383.888 1.33599 384.825 0.398988C386.482 -1.25807 393.075 2.33039 401.732 9.60044C416.343 21.872 427.301 39.5676 433.042 60.1593C434.837 66.5977 435.357 71.5753 435.709 85.6593C436.109 101.647 435.93 104.121 433.639 114.284C424.49 154.868 398.774 186.881 352.636 215.124C346.681 218.77 330.931 227.637 317.636 234.829C262.334 264.746 240.434 280.009 212.465 308.128C170.181 350.639 148.122 395.12 144.002 446.182C140.161 493.791 155.944 539.655 187.115 571.465C206.294 591.038 228.77 603.198 256.965 609.258C268.654 611.77 295.92 611.84 308.059 609.389C337.256 603.493 360.314 589.377 373.881 569.092C381.514 557.681 383.465 550.773 383.465 535.159C383.465 522.798 383.324 521.893 380.613 516.742C374.997 506.073 363.114 495.827 348.587 489.126C340.9 485.58 327.756 481.165 321.715 480.099C319.652 479.735 317.965 478.968 317.965 478.395C317.965 477.075 356.066 478.061 367.32 479.671C398.74 484.167 421.268 496.782 432.829 516.353C452.414 549.51 445.214 599.896 414.324 645.851C406.148 658.015 389.538 678.659 387.928 678.659C387.418 678.659 384.134 681.527 380.63 685.031C377.125 688.536 372.054 692.686 369.361 694.253C366.668 695.82 363.565 697.945 362.465 698.974C353.51 707.351 318.816 725.715 299.965 732.056C269.545 742.288 238.186 745.764 208.965 742.141Z" fill="url(#paint2_linear_279_272)"/>
<path d="M401.732 9.60044C393.076 2.33039 386.482 -1.25807 384.825 0.398988C384.825 0.398988 398.5 12.5 403 25.5C407.5 38.5 412.802 52 408.5 69C404.198 86 389.5 113 381 126C372.5 139 372.915 139.918 367.5 149.5C362.086 159.082 284.434 221.029 271 228.5C257.567 235.971 233.06 256.393 220 264.5C206.941 272.607 182.792 291.917 166.5 310C150.209 328.083 137.099 345.319 131 359.5C124.902 373.681 118.966 386.081 115 401C111.034 415.919 106.585 431.254 107.02 456C107.454 480.746 107.981 495.662 117.52 518.5C127.059 541.338 148.054 559.48 165.52 578.5C182.986 597.52 190.179 612.454 213.02 624.5C235.861 636.546 287.13 647.664 322 638C356.87 628.336 396.163 594.462 399 586L399.192 585.429C401.911 577.326 403.489 572.625 403 556.5C402.502 540.065 401.012 538.016 393.094 527.129L393 527C385 516 378 512.5 378 512.5L378.054 512.603C380.748 517.72 383.465 522.881 383.465 535.159C383.465 550.773 381.514 557.681 373.882 569.092C360.314 589.377 337.256 603.493 308.059 609.389C295.92 611.84 268.654 611.77 256.965 609.258C228.77 603.198 206.295 591.038 187.115 571.465C155.944 539.655 140.161 493.791 144.002 446.182C148.122 395.12 170.181 350.639 212.465 308.128C240.434 280.009 262.334 264.746 317.637 234.829C330.931 227.637 346.681 218.77 352.637 215.124C398.774 186.881 424.49 154.868 433.639 114.284C435.93 104.121 436.109 101.647 435.709 85.6593C435.358 71.5753 434.837 66.5977 433.042 60.1593C427.302 39.5676 416.343 21.872 401.732 9.60044Z" fill="url(#paint3_linear_279_272)"/>
<path d="M549 417.5C549 417.5 529.822 376.473 516 353.5C502.178 330.527 477 297 477 297" stroke="#14CFFD" stroke-width="7"/>
<path d="M421.5 735.5C421.5 735.5 468.936 669.057 481 640C493.064 610.943 498.241 587.605 503 562.5C507.759 537.395 510.5 497.5 510.5 497.5" stroke="#006BD7" stroke-width="7"/>
<path d="M421 732C421 732 377.286 763.241 347 778C316.714 792.759 273.5 809.5 258.5 811C243.5 812.5 193 816.5 193 816.5" stroke="#002F75" stroke-width="5"/>
<line x1="379.261" y1="141.672" x2="275.261" y2="229.672" stroke="#15C9FF" stroke-width="7"/>
<line x1="184.565" y1="181.87" x2="278.565" y2="228.87" stroke="#13B3FF" stroke-width="7"/>
<line x1="92.4281" y1="319.873" x2="279.428" y2="225.873" stroke="#09A6FB" stroke-width="7"/>
<line x1="93.0727" y1="323.081" x2="190.073" y2="175.081" stroke="#039BFB" stroke-width="7"/>
<line x1="19.9966" y1="445.203" x2="92.9966" y2="323.203" stroke="#088DFA" stroke-width="7"/>
<line x1="133.562" y1="529.657" x2="94.5623" y2="325.657" stroke="#0180FA" stroke-width="7"/>
<line x1="23.315" y1="443.877" x2="86.315" y2="629.877" stroke="#0056CF" stroke-width="7"/>
<line x1="228.732" y1="634.49" x2="85.7316" y2="623.49" stroke="#0258C7" stroke-width="7"/>
<line x1="208.94" y1="717.83" x2="83.94" y2="626.83" stroke="#005FE7" stroke-width="7"/>
<line x1="210.314" y1="717.568" x2="375.314" y2="684.568" stroke="#054298" stroke-width="7"/>
<line x1="205.22" y1="715.986" x2="332.22" y2="640.986" stroke="#0159C6" stroke-width="7"/>
<line x1="227.163" y1="635.504" x2="334.163" y2="640.504" stroke="#005ED5" stroke-width="7"/>
<line x1="406.024" y1="585.855" x2="327.024" y2="641.855" stroke="#006EEE" stroke-width="7"/>
<line x1="407.353" y1="584.003" x2="375.353" y2="691.003" stroke="#0160D6" stroke-width="7"/>
<line x1="570.603" y1="568.34" x2="419.603" y2="736.34" stroke="#0163D6" stroke-width="7"/>
<line x1="576.305" y1="571.234" x2="513.305" y2="495.234" stroke="#0694F9" stroke-width="7"/>
<line x1="550.683" y1="412.342" x2="510.683" y2="492.342" stroke="#07AEFC" stroke-width="6"/>
<line x1="548.463" y1="414.145" x2="415.463" y2="349.145" stroke="#1AC3FF" stroke-width="7"/>
<line x1="483.181" y1="300.737" x2="419.181" y2="351.737" stroke="#0AB8F9" stroke-width="7"/>
<line x1="481.199" y1="296.494" x2="288.199" y2="307.494" stroke="#13BCFF" stroke-width="7"/>
<line x1="421.997" y1="352.353" x2="284.997" y2="311.353" stroke="#0EA8FF" stroke-width="7"/>
<line x1="332.17" y1="643.929" x2="374.17" y2="687.929" stroke="#0559D0" stroke-width="6"/>
<line x1="203.605" y1="718.151" x2="223.605" y2="638.151" stroke="#0052C7" stroke-width="7"/>
<line x1="132.109" y1="530.607" x2="86.1093" y2="619.607" stroke="#045BCF" stroke-width="7"/>
<line x1="25.5468" y1="439.916" x2="134.547" y2="529.916" stroke="#077AF9" stroke-width="8"/>
<line x1="377.756" y1="138.417" x2="178.756" y2="182.417" stroke="#14C6FF" stroke-width="7"/>
<path d="M131 529.5C131 529.5 159.049 563.507 178 584C196.951 604.493 229.5 633.5 229.5 633.5" stroke="#0169E9" stroke-width="7"/>
<path d="M574 566.5C574 566.5 571.138 519.595 566 490C560.862 460.405 547.5 414.5 547.5 414.5" stroke="#0BB1FC" stroke-width="7"/>
<circle cx="377" cy="135" r="15" fill="#15CEFF"/>
<circle cx="132" cy="529" r="14" fill="#017FFB"/>
<circle cx="226.5" cy="635.5" r="12.5" fill="#0172F8"/>
<circle cx="405.5" cy="588.5" r="11.5" fill="#0083FA"/>
<circle cx="327.5" cy="642.5" r="11.5" fill="#0075EF"/>
<circle cx="204" cy="715" r="16" fill="#00337C"/>
<circle cx="86" cy="624" r="17" fill="#005AD5"/>
<circle cx="375.5" cy="685.5" r="12.5" fill="#053E8B"/>
<circle cx="277" cy="227" r="16" fill="#0DBAFE"/>
<circle cx="185.5" cy="179.5" r="17.5" fill="#0164D8"/>
<circle cx="93.5" cy="319.5" r="17.5" fill="#0189FC"/>
<ellipse cx="23" cy="437.5" rx="23" ry="23.5" fill="#014CB0"/>
<circle cx="421.5" cy="734.5" r="12.5" fill="#004FB6"/>
<circle cx="512" cy="498" r="12" fill="#0397FC"/>
<circle cx="416.5" cy="351.5" r="13.5" fill="#0EB9FE"/>
<circle cx="292" cy="312" r="15" fill="#014AA2"/>
<circle cx="478" cy="300" r="16" fill="#0277E5"/>
<circle cx="548" cy="415" r="17" fill="#13C4FF"/>
<circle cx="573" cy="566" r="17" fill="#0062D0"/>
<defs>
<linearGradient id="paint0_linear_279_272" x1="389" y1="473" x2="537.5" y2="261.5" gradientUnits="userSpaceOnUse">
<stop stop-color="#004698"/>
<stop offset="1" stop-color="#00A7FF"/>
</linearGradient>
<linearGradient id="paint1_linear_279_272" x1="261.5" y1="652" x2="571" y2="358.5" gradientUnits="userSpaceOnUse">
<stop offset="0.0169995" stop-color="#022B5D"/>
<stop offset="1" stop-color="#0994F9"/>
</linearGradient>
<linearGradient id="paint2_linear_279_272" x1="173" y1="-46.5" x2="24.5" y2="776" gradientUnits="userSpaceOnUse">
<stop stop-color="#0591FB"/>
<stop offset="1" stop-color="#002462"/>
</linearGradient>
<linearGradient id="paint3_linear_279_272" x1="231" y1="67" x2="372" y2="575" gradientUnits="userSpaceOnUse">
<stop stop-color="#04A9FF"/>
<stop offset="1" stop-color="#042D60"/>
</linearGradient>
</defs>
</svg>
